<?xml version="1.0" encoding="UTF-8" standalone="no"?><!DOCTYPE svg PUBLIC "-//W3C//DTD SVG 1.1//EN" "http://www.w3.org/Graphics/SVG/1.1/DTD/svg11.dtd"><svg width="100%" height="100%" viewBox="0 0 203 55" version="1.1" xmlns="http://www.w3.org/2000/svg" xmlns:xlink="http://www.w3.org/1999/xlink" xml:space="preserve" xmlns:serif="http://www.serif.com/" style="fill-rule:evenodd;clip-rule:evenodd;stroke-linejoin:round;stroke-miterlimit:2;"><g><path d="M33.13,14.554l-19.226,-0l-0,8.727l11.321,0l-0,15.983l4.877,-0l0,-7.061l8.506,0l-0,-11.886c0.006,-0.108 0.222,-2.727 -1.22,-4.17c-1.525,-1.526 -3.883,-1.593 -4.258,-1.593Z" style="fill:url(#_Linear1);fill-rule:nonzero;"/><path d="M3.747,26.365c-1.177,1.179 -1,3.34 -0.998,3.362l0.005,16.025l20.7,0l0,-20.7l-16.142,-0c-0.231,-0 -2.283,0.03 -3.565,1.313Z" style="fill:url(#_Linear2);fill-rule:nonzero;"/><path d="M41.639,33.974l-9.764,-0l0,9.779l7.843,0c0.038,0 0.978,0.004 1.533,-0.551c0.395,-0.395 0.408,-1.191 0.39,-1.381l-0.002,-7.847Z" style="fill:url(#_Linear3);fill-rule:nonzero;"/><path d="M13.903,23.281l-0,-8.727l19.176,-0c0.03,-0.003 2.658,-0.059 4.31,1.593c1.442,1.44 1.226,4.062 1.22,4.17l-0,11.886l-8.506,0l0,7.059l-4.877,-0l-0,-15.981l-11.323,0Zm9.552,1.771l0,20.703l-20.703,-0l-0.004,-16.028c-0.002,-0.022 -0.179,-2.186 1,-3.362c1.345,-1.346 3.536,-1.313 3.584,-1.313l16.123,-0Zm17.796,18.15c-0.554,0.558 -1.496,0.551 -1.533,0.549l-7.844,-0l-0,-9.777l9.764,-0l0.004,7.847c0.018,0.19 0.005,0.986 -0.391,1.381m2.158,-1.466l-0,-9.533l-3.032,0l-0.002,-11.804c0.015,-0.141 0.302,-3.468 -1.734,-5.504c-2.185,-2.183 -5.469,-2.118 -5.586,-2.112l-20.923,0l-0,10.498l-4.774,0c-0.115,-0.006 -2.969,-0.062 -4.863,1.831c-1.772,1.773 -1.522,4.658 -1.513,4.694l-0,17.719l24.244,0l-0,-6.493l4.877,0l0,4.489l9.65,0c0.339,0 1.747,-0.062 2.753,-1.066c1.032,-1.037 0.916,-2.624 0.903,-2.719" style="fill:#fff;fill-rule:nonzero;"/><path d="M106.457,26.787l-0.326,0l11.601,-17.273l-23.166,-0l-0,5.801l12.281,0.065l-10.884,16.231l5.016,0c4.303,0 9.388,1.499 9.388,7.236c-0,4.692 -3.846,7.233 -8.669,7.233c-3.965,0 -9.363,-1.816 -11.915,-3.12l-0.078,-0.039l0,-13.396l-0.021,0l-0,-0.002l-19.213,0l-0,3.952c-0,1.943 1.047,3.953 4.366,3.953l6.894,0l0,7.506c0,-0 -3.342,1.898 -8.507,1.898c-6.61,-0 -14.841,-4.055 -15.663,-15.573c-0.18,-2.509 -0.231,-5.305 -0,-7.289c1.181,-10.112 8.598,-15.802 17.941,-15.802c5.469,0 9.494,1.672 12.685,3.192l0.38,-7.294c-3.191,-1.367 -6.609,-2.963 -13.599,-2.963c-17.926,0 -25.915,12.155 -25.915,26.511c0,14.662 6.927,26.283 23.562,26.283c10.429,-0 16.917,-4.364 17.075,-4.472l0.205,0.075c2.019,0.871 7.614,2.579 12.52,2.579c8.408,-0 15.255,-5.018 15.255,-13.69c-0,-9.581 -8.802,-11.602 -11.213,-11.602" style="fill:#fff;fill-rule:nonzero;"/><path d="M138.985,15.386l2.065,0c0.939,0 1.675,0.279 2.124,0.803c0.482,0.596 0.506,1.307 0.506,1.443c-0,0.192 -0.037,0.861 -0.523,1.44c-0.451,0.529 -1.188,0.807 -2.127,0.807l-2.045,0l0,-4.493Zm0,5.646l2.045,0c3.01,0 3.805,-2.224 3.805,-3.4c-0,-1.264 -0.797,-3.401 -3.785,-3.401l-3.22,-0l0,12.852l1.155,-0l0,-6.051Z" style="fill:#fff;fill-rule:nonzero;"/><path d="M149.297,22.445c0.652,-0 1.535,0.121 2.043,0.242c-0.005,0.442 -0.018,1.8 -0.018,1.8l0,0.003c0,0.494 -0.945,1.44 -2.429,1.44c-1.356,-0 -2.045,-0.553 -2.045,-1.641c0,-0.842 0.426,-1.844 2.449,-1.844m2.043,3.701c0.002,0.203 0.002,0.455 0.002,0.764l-0,0.173l1.153,-0l-0,-0.173c-0,-0.27 -0.002,-0.447 -0.004,-0.684c-0.007,-0.473 -0.016,-1.184 -0.016,-3.349c0,-2.73 -0.537,-4.209 -3.379,-4.209c-2.198,0 -3.2,1.136 -3.2,2.192l0,0.173l1.153,-0l0,-0.173c0,-0.207 0.365,-1.037 2.047,-1.037c1.443,0 2.159,0.566 2.237,1.773c-0.36,-0.103 -1.099,-0.306 -2.036,-0.306c-2.187,-0 -3.602,1.176 -3.602,2.999c0,1.803 1.136,2.794 3.198,2.794c1.266,-0 2.054,-0.555 2.447,-0.937" style="fill:#fff;fill-rule:nonzero;"/><path d="M155.797,20.794c0.529,-0.587 1.192,-0.911 1.868,-0.911c0.734,0 1.554,0.365 2.044,0.907c0.495,0.615 0.767,1.354 0.767,2.086c0,0.734 -0.274,1.475 -0.764,2.086c-0.473,0.542 -1.296,0.906 -2.047,0.906c-0.693,0 -1.356,-0.321 -1.862,-0.902c-0.386,-0.488 -0.639,-1.045 -0.727,-1.585l-0.002,-0.98c0.09,-0.568 0.343,-1.127 0.723,-1.607m1.868,-2.124c-1.184,-0 -2.157,0.794 -2.65,1.455l0,-1.455l-1.155,-0l0,14.464l1.155,0l0,-7.447c0.462,0.65 1.376,1.397 2.65,1.397c2.086,0 3.986,-2.006 3.986,-4.208c-0,-2.203 -1.9,-4.206 -3.986,-4.206" style="fill:#fff;fill-rule:nonzero;"/><path d="M163.778,21.815c0.104,-0.994 0.747,-2.073 2.274,-2.073c1.692,-0 2.353,1.079 2.422,2.073l-4.696,-0Zm2.658,5.268c2.308,0 3.176,-2.103 3.185,-2.124l0.095,-0.24l-1.153,-0l-0.052,0.075c-0.006,0.011 -0.81,1.136 -2.075,1.136c-2.233,0 -2.654,-1.855 -2.688,-3.081l5.886,-0l-0,-0.175c-0,-2.751 -1.784,-4.005 -3.442,-4.005c-0.708,-0 -1.717,0.166 -2.5,0.958c-0.724,0.735 -1.08,1.827 -1.061,3.252c0.041,2.671 1.428,4.204 3.805,4.204" style="fill:#fff;fill-rule:nonzero;"/><rect x="170.796" y="12.619" width="1.155" height="14.465" style="fill:#fff;"/><path d="M176.919,22.445c0.653,-0 1.536,0.121 2.043,0.242c-0.004,0.442 -0.017,1.8 -0.017,1.8l-0,0.003c-0,0.494 -0.946,1.44 -2.429,1.44c-1.356,-0 -2.045,-0.553 -2.045,-1.641c-0,-0.842 0.425,-1.844 2.448,-1.844m-3.603,1.844c-0,1.803 1.138,2.794 3.2,2.794c1.265,-0 2.053,-0.555 2.446,-0.937c0.002,0.203 0.002,0.455 0.002,0.764l0,0.173l1.153,-0l0,-0.173c0,-0.27 -0.002,-0.447 -0.004,-0.684c-0.006,-0.473 -0.015,-1.184 -0.015,-3.349c-0,-2.73 -0.538,-4.209 -3.379,-4.209c-2.198,0 -3.2,1.136 -3.2,2.192l-0,0.173l1.153,-0l-0,-0.173c-0,-0.207 0.365,-1.037 2.047,-1.037c1.442,0 2.159,0.566 2.237,1.773c-0.361,-0.103 -1.099,-0.306 -2.037,-0.306c-2.187,-0 -3.603,1.176 -3.603,2.999" style="fill:#fff;fill-rule:nonzero;"/><path d="M186.145,20.341l0.779,-0.866l-0.129,-0.117c-0.514,-0.464 -1.138,-0.689 -1.911,-0.689c-0.957,0 -1.769,0.454 -2.248,1.007l0,-0.907l-1.153,-0l0,8.315l1.153,-0l0,-5.338c0,-0.602 0.566,-1.924 2.248,-1.924c0.479,0 0.84,0.128 1.131,0.398l0.13,0.121Z" style="fill:#fff;fill-rule:nonzero;"/><path d="M188.734,17.161c0.369,-0 0.719,-0.35 0.719,-0.719c-0,-0.376 -0.344,-0.717 -0.719,-0.717c-0.369,0 -0.719,0.348 -0.719,0.717c-0,0.356 0.362,0.719 0.719,0.719" style="fill:#fff;fill-rule:nonzero;"/><rect x="188.137" y="18.669" width="1.155" height="8.374" style="fill:#fff;"/><path d="M194.098,22.445c0.652,-0 1.536,0.121 2.043,0.242c-0.004,0.442 -0.017,1.8 -0.017,1.8l-0,0.003c-0,0.494 -0.946,1.44 -2.429,1.44c-1.356,-0 -2.045,-0.553 -2.045,-1.641c-0,-0.842 0.425,-1.844 2.448,-1.844m2.045,4.465l0,0.173l1.153,-0l0,-0.173c0,-0.27 -0.002,-0.447 -0.004,-0.684c-0.007,-0.473 -0.015,-1.184 -0.015,-3.349c-0,-2.73 -0.538,-4.209 -3.379,-4.209c-2.199,0 -3.2,1.136 -3.2,2.192l-0,0.173l1.153,-0l-0,-0.173c-0,-0.207 0.365,-1.037 2.047,-1.037c1.442,0 2.159,0.566 2.237,1.773c-0.361,-0.103 -1.099,-0.306 -2.037,-0.306c-2.187,-0 -3.601,1.176 -3.601,2.999c-0,1.803 1.136,2.794 3.198,2.794c1.265,-0 2.053,-0.555 2.446,-0.935c0.002,0.201 0.002,0.453 0.002,0.762" style="fill:#fff;fill-rule:nonzero;"/><path d="M129.739,36.455c-0.609,0 -1.183,0.225 -1.576,0.615c-0.391,0.393 -0.616,0.968 -0.616,1.577l0,0.172l1.156,0l-0,-0.172c-0,-0.631 0.406,-1.037 1.036,-1.037c0.38,0 0.68,0.134 0.89,0.393c0.229,0.305 0.347,0.736 0.347,1.248c0,1.609 -1.278,2.65 -3.254,2.65c-1.885,-0 -3.254,-1.361 -3.254,-3.235c0,-0.872 0.253,-1.548 0.752,-2.012c0.874,-0.836 2.301,-0.86 2.502,-0.86l0.173,0l0,-0.98l-0.019,-0.175l-0.173,0c-0.099,0 -0.546,-0.041 -0.948,-0.24c-0.59,-0.313 -0.877,-0.837 -0.877,-1.602c0,-1.138 1.073,-1.44 1.641,-1.44c0.568,0 1.644,0.302 1.644,1.44l-0,0.175l1.153,0l-0,-0.175c-0,-1.703 -1.406,-2.595 -2.797,-2.595c-1.388,-0 -2.794,0.892 -2.794,2.595c0,1.134 0.462,1.823 0.933,2.229c-0.499,0.211 -0.907,0.47 -1.241,0.79c-0.732,0.691 -1.104,1.65 -1.104,2.85c0,1.257 0.449,2.36 1.302,3.189c0.795,0.773 1.898,1.199 3.107,1.199c2.637,-0 4.409,-1.527 4.409,-3.803c0,-1.699 -0.939,-2.796 -2.392,-2.796" style="fill:#fff;fill-rule:nonzero;"/><path d="M139.005,36.823l5.99,-0l-0,-1.013l-5.99,0l0,-4.573l6.372,-0l0,-1.015l-7.546,0l-0,12.852l7.93,-0l0,-1.013l-6.756,0l0,-5.238Z" style="fill:#fff;fill-rule:nonzero;"/><path d="M150.272,38.146c-0.974,-0.296 -1.891,-0.575 -1.891,-1.181c-0,-0.225 -0.003,-0.532 0.235,-0.769c0.253,-0.253 0.725,-0.382 1.406,-0.382c1.094,-0 1.44,0.237 1.55,0.38c0.08,0.103 0.06,0.194 0.06,0.201l-0.075,0.226l1.261,0l-0,-0.172c-0,-1.153 -0.993,-1.788 -2.796,-1.788c-1.123,-0 -2.797,0.619 -2.797,2.332c0,1.278 1.443,1.74 2.715,2.148c1.094,0.352 2.126,0.682 2.126,1.421c0,1.343 -2.025,1.358 -2.044,1.358c-1.808,0 -2,-1.019 -2.006,-1.06l-0.024,-0.149l-1.168,-0l-0,0.175c-0,1.503 1.656,2.189 3.198,2.189c1.913,0 3.2,-1.01 3.2,-2.513c-0,-1.52 -1.568,-1.995 -2.95,-2.416" style="fill:#fff;fill-rule:nonzero;"/><path d="M160.03,40.805c-0.006,0.011 -0.593,1.116 -2.066,1.116c-0.803,0.007 -1.423,-0.205 -1.857,-0.633c-0.512,-0.507 -0.771,-1.321 -0.771,-2.42c0,-2.084 1.322,-3.036 2.63,-3.053c1.458,-0 2.036,1.254 2.06,1.308l0.045,0.104l1.149,-0l-0.063,-0.222c-0.004,-0.024 -0.688,-2.345 -3.191,-2.345c-1.881,-0 -3.783,1.446 -3.783,4.208c0,2.634 1.414,4.206 3.783,4.206c2.311,0 3.179,-2.103 3.187,-2.125l0.095,-0.239l-1.17,-0l-0.048,0.095Z" style="fill:#fff;fill-rule:nonzero;"/><path d="M165.728,34.66c-0.993,0 -1.781,0.46 -2.247,1.004l-0,-0.902l-1.153,-0l-0,8.313l1.153,-0l-0,-5.338c-0,-0.602 0.565,-1.922 2.247,-1.922c0.482,0 0.84,0.126 1.132,0.396l0.129,0.121l0.78,-0.866l-0.13,-0.117c-0.514,-0.462 -1.138,-0.689 -1.911,-0.689" style="fill:#fff;fill-rule:nonzero;"/><rect x="168.983" y="34.66" width="1.155" height="8.374" style="fill:#fff;"/><path d="M169.579,31.716c-0.369,-0 -0.719,0.349 -0.719,0.719c-0,0.354 0.363,0.717 0.719,0.717c0.369,-0 0.719,-0.348 0.719,-0.717c-0,-0.376 -0.343,-0.719 -0.719,-0.719" style="fill:#fff;fill-rule:nonzero;"/><path d="M173.826,32.643l-1.155,0l-0,2.017l-1.209,-0l-0,1.155l1.209,0l-0,5.875c-0,0.7 0.686,1.384 1.384,1.384c0.358,0 0.738,-0.03 1.099,-0.246l0.084,-0.049l0,-1.16l-0.265,0.166c-0.145,0.091 -0.344,0.136 -0.594,0.136c-0.238,0 -0.553,-0.077 -0.553,-0.734l-0,-5.372l1.412,0l0,-1.155l-1.412,-0l-0,-2.017Z" style="fill:#fff;fill-rule:nonzero;"/><path d="M179.879,31.494l-1.559,2.003l0.405,0.406l2.218,-1.33l0,-0.099c0,-0.251 -0.682,-0.98 -0.98,-0.98l-0.084,-0Z" style="fill:#fff;fill-rule:nonzero;"/><path d="M179.722,42.002c-1.562,-0 -2.771,-1.685 -2.771,-3.136c0,-1.438 1.209,-3.111 2.771,-3.111c1.574,-0 2.75,1.643 2.75,3.111c0,1.451 -1.202,3.136 -2.75,3.136m-0,-7.342c-2.397,0 -4.006,2.177 -4.006,4.206c0,2.032 1.609,4.209 4.006,4.209c2.396,-0 4.005,-2.177 4.005,-4.209c-0,-2.029 -1.609,-4.206 -4.005,-4.206" style="fill:#fff;fill-rule:nonzero;"/><path d="M188.291,34.66c-0.993,0 -1.781,0.46 -2.248,1.004l0,-0.902l-1.153,-0l0,8.313l1.153,-0l0,-5.338c0,-0.602 0.566,-1.922 2.248,-1.922c0.482,0 0.84,0.126 1.132,0.396l0.129,0.121l0.78,-0.866l-0.13,-0.117c-0.514,-0.462 -1.138,-0.689 -1.911,-0.689" style="fill:#fff;fill-rule:nonzero;"/><path d="M192.141,31.716c-0.369,-0 -0.719,0.349 -0.719,0.719c0,0.354 0.363,0.717 0.719,0.717c0.37,-0 0.72,-0.348 0.72,-0.717c-0,-0.376 -0.344,-0.719 -0.72,-0.719" style="fill:#fff;fill-rule:nonzero;"/><rect x="191.544" y="34.66" width="1.155" height="8.374" style="fill:#fff;"/><path d="M198.03,42.002c-1.561,-0 -2.771,-1.685 -2.771,-3.136c0,-1.438 1.21,-3.111 2.771,-3.111c1.574,-0 2.751,1.643 2.751,3.111c-0,1.451 -1.203,3.136 -2.751,3.136m-0,-7.342c-2.397,0 -4.006,2.177 -4.006,4.206c0,2.032 1.609,4.209 4.006,4.209c2.396,-0 4.005,-2.177 4.005,-4.209c0,-2.029 -1.609,-4.206 -4.005,-4.206" style="fill:#fff;fill-rule:nonzero;"/></g><defs><linearGradient id="_Linear1" x1="0" y1="0" x2="1" y2="0" gradientUnits="userSpaceOnUse" gradientTransform="matrix(24.7209,0,0,24.7209,13.9026,26.9075)"><stop offset="0" style="stop-color:#af1c1b;stop-opacity:1"/><stop offset="0.21" style="stop-color:#af1c1b;stop-opacity:1"/><stop offset="1" style="stop-color:#ec312a;stop-opacity:1"/></linearGradient><linearGradient id="_Linear2" x1="0" y1="0" x2="1" y2="0" gradientUnits="userSpaceOnUse" gradientTransform="matrix(0,-30.819,30.819,-0,13.0963,54.6555)"><stop offset="0" style="stop-color:#634183;stop-opacity:1"/><stop offset="0.21" style="stop-color:#634183;stop-opacity:1"/><stop offset="1" style="stop-color:#607bbc;stop-opacity:1"/></linearGradient><linearGradient id="_Linear3" x1="0" y1="0" x2="1" y2="0" gradientUnits="userSpaceOnUse" gradientTransform="matrix(-9.77221,0,-0,-9.77221,41.6467,38.8626)"><stop offset="0" style="stop-color:#f36f23;stop-opacity:1"/><stop offset="0.24" style="stop-color:#f36f23;stop-opacity:1"/><stop offset="1" style="stop-color:#f89920;stop-opacity:1"/></linearGradient></defs></svg>