<?xml version="1.0" encoding="UTF-8" standalone="no"?><!DOCTYPE svg PUBLIC "-//W3C//DTD SVG 1.1//EN" "http://www.w3.org/Graphics/SVG/1.1/DTD/svg11.dtd"><svg width="100%" height="100%" viewBox="0 0 203 55" version="1.1" xmlns="http://www.w3.org/2000/svg" xmlns:xlink="http://www.w3.org/1999/xlink" xml:space="preserve" xmlns:serif="http://www.serif.com/" style="fill-rule:evenodd;clip-rule:evenodd;stroke-linejoin:round;stroke-miterlimit:2;"><g><path d="M31.925,14.503l-19.252,0.001l-0,8.76l11.367,0l-0,16.044l4.897,0l-0,-7.087l8.538,0l-0,-11.934c0.007,-0.108 0.223,-2.738 -1.225,-4.184c-1.533,-1.534 -3.907,-1.601 -4.276,-1.601c-0.03,0 -0.047,0.001 -0.049,0.001Z" style="fill:url(#_Linear1);fill-rule:nonzero;"/><path d="M22.263,25.042l-16.184,0c-0.05,0.001 -2.249,-0.033 -3.6,1.318c-1.182,1.182 -1.005,3.353 -1.003,3.374l0.004,16.09l20.783,0l-0,-20.782Z" style="fill:url(#_Linear2);fill-rule:nonzero;"/><path d="M40.516,33.999l-9.801,0l-0,9.815l7.875,0c0.036,0.002 0.981,0.007 1.539,-0.552c0.395,-0.396 0.409,-1.195 0.391,-1.387l-0.004,-7.876Z" style="fill:url(#_Linear3);fill-rule:nonzero;"/><path d="M105.586,26.784l-0.327,0l11.646,-17.341l-23.257,0l-0,5.824l12.33,0.065l-10.927,16.295l5.036,0c4.32,0 9.425,1.504 9.425,7.263c-0,4.711 -3.86,7.263 -8.704,7.263c-3.979,0 -9.398,-1.825 -11.961,-3.133l-0.077,-0.039l-0,-13.447l-0.021,0l-0,-0.005l-19.289,0l-0,3.969c-0,1.949 1.052,3.968 4.383,3.968l6.922,0l-0,7.534c-0,0 -3.356,1.906 -8.542,1.906c-6.634,0 -14.896,-4.071 -15.723,-15.632c-0.178,-2.521 -0.232,-5.326 -0,-7.32c1.186,-10.149 8.632,-15.861 18.01,-15.861c5.493,0 9.531,1.677 12.735,3.203l0.381,-7.32c-3.202,-1.372 -6.634,-2.974 -13.65,-2.974c-17.995,-0 -26.016,12.2 -26.016,26.612c-0,14.717 6.953,26.384 23.653,26.384c10.469,0 16.983,-4.38 17.142,-4.488l0.206,0.076c2.025,0.872 7.642,2.587 12.566,2.587c8.442,0 15.314,-5.038 15.314,-13.742c-0,-9.619 -8.834,-11.647 -11.255,-11.647" style="fill:#231f20;fill-rule:nonzero;"/><path d="M138.241,15.339l2.073,0c0.942,0 1.681,0.28 2.132,0.806c0.483,0.599 0.508,1.312 0.508,1.449c-0,0.192 -0.039,0.864 -0.525,1.445c-0.454,0.53 -1.193,0.81 -2.136,0.81l-2.052,0l-0,-4.51Zm-0,5.669l2.052,0c3.021,0 3.819,-2.233 3.819,-3.414c-0,-1.268 -0.8,-3.414 -3.798,-3.414l-3.232,0l-0,12.902l1.159,0l-0,-6.074Z" style="fill:#231f20;fill-rule:nonzero;"/><path d="M148.592,22.425c0.654,0 1.54,0.121 2.051,0.244c-0.004,0.443 -0.018,1.807 -0.018,1.807l0,0.002c0,0.496 -0.95,1.445 -2.438,1.445c-1.362,0 -2.053,-0.554 -2.053,-1.647c0,-0.845 0.427,-1.851 2.458,-1.851m2.05,3.716c0.002,0.203 0.002,0.458 0.002,0.766l0,0.175l1.159,0l0,-0.175c0,-0.27 -0.002,-0.448 -0.005,-0.686c-0.006,-0.474 -0.015,-1.189 -0.015,-3.363c0,-2.739 -0.54,-4.223 -3.393,-4.223c-2.207,0 -3.212,1.14 -3.212,2.198l0,0.175l1.159,0l0,-0.175c0,-0.206 0.365,-1.04 2.053,-1.04c1.449,0 2.168,0.568 2.247,1.781c-0.362,-0.106 -1.105,-0.308 -2.045,-0.308c-2.197,0 -3.617,1.181 -3.617,3.01c0,1.809 1.141,2.806 3.212,2.806c1.269,0 2.061,-0.557 2.455,-0.941" style="fill:#231f20;fill-rule:nonzero;"/><path d="M155.117,20.768c0.531,-0.59 1.196,-0.914 1.874,-0.914c0.737,0 1.562,0.366 2.054,0.91c0.496,0.616 0.768,1.36 0.768,2.094c0,0.736 -0.274,1.481 -0.766,2.092c-0.476,0.546 -1.302,0.912 -2.056,0.912c-0.695,0 -1.36,-0.323 -1.867,-0.905c-0.388,-0.49 -0.642,-1.05 -0.732,-1.593l-0.002,-0.984c0.092,-0.57 0.346,-1.13 0.727,-1.612m1.874,-2.133c-1.188,0 -2.165,0.797 -2.659,1.462l0,-1.462l-1.159,0l0,14.521l1.159,0l0,-7.477c0.465,0.654 1.381,1.403 2.659,1.403c2.094,0 4.001,-2.013 4.001,-4.224c0,-2.211 -1.907,-4.223 -4.001,-4.223" style="fill:#231f20;fill-rule:nonzero;"/><path d="M163.129,21.793c0.104,-0.998 0.749,-2.08 2.283,-2.08c1.699,-0 2.363,1.083 2.431,2.08l-4.714,-0Zm2.668,5.289c2.318,-0 3.19,-2.112 3.199,-2.134l0.095,-0.239l-1.158,-0l-0.052,0.074c-0.008,0.012 -0.814,1.141 -2.084,1.141c-2.241,-0 -2.664,-1.863 -2.698,-3.094l5.909,-0l0,-0.174c0,-2.763 -1.791,-4.021 -3.455,-4.021c-0.711,-0 -1.725,0.167 -2.511,0.963c-0.725,0.735 -1.083,1.833 -1.064,3.263c0.041,2.683 1.432,4.221 3.819,4.221" style="fill:#231f20;fill-rule:nonzero;"/><rect x="170.176" y="12.561" width="1.159" height="14.521" style="fill:#231f20;"/><path d="M176.322,22.425c0.654,0 1.54,0.121 2.051,0.244c-0.004,0.443 -0.018,1.807 -0.018,1.807l-0,0.002c-0,0.496 -0.95,1.445 -2.438,1.445c-1.362,0 -2.053,-0.554 -2.053,-1.647c-0,-0.845 0.427,-1.851 2.458,-1.851m-3.617,1.851c-0,1.809 1.141,2.806 3.212,2.806c1.269,0 2.061,-0.557 2.455,-0.941c0.002,0.203 0.002,0.458 0.002,0.766l-0,0.175l1.159,0l-0,-0.175c-0,-0.27 -0.002,-0.448 -0.005,-0.686c-0.006,-0.474 -0.015,-1.189 -0.015,-3.363c-0,-2.739 -0.54,-4.223 -3.393,-4.223c-2.207,0 -3.212,1.14 -3.212,2.198l-0,0.175l1.159,0l-0,-0.175c-0,-0.206 0.365,-1.04 2.053,-1.04c1.449,0 2.168,0.568 2.247,1.781c-0.362,-0.106 -1.105,-0.308 -2.045,-0.308c-2.197,0 -3.617,1.181 -3.617,3.01" style="fill:#231f20;fill-rule:nonzero;"/><path d="M185.583,20.313l0.782,-0.869l-0.129,-0.117c-0.516,-0.466 -1.144,-0.692 -1.919,-0.692c-0.96,-0 -1.775,0.455 -2.255,1.01l-0,-0.909l-1.159,-0l-0,8.346l1.159,-0l-0,-5.357c-0,-0.605 0.568,-1.931 2.255,-1.931c0.482,-0 0.843,0.126 1.136,0.398l0.13,0.121Z" style="fill:#231f20;fill-rule:nonzero;"/><path d="M188.182,17.121c0.371,-0 0.721,-0.35 0.721,-0.721c-0,-0.377 -0.343,-0.721 -0.721,-0.721c-0.371,-0 -0.721,0.35 -0.721,0.721c-0,0.357 0.364,0.721 0.721,0.721" style="fill:#231f20;fill-rule:nonzero;"/><rect x="187.583" y="18.634" width="1.159" height="8.407" style="fill:#231f20;"/><path d="M193.567,22.425c0.654,0 1.54,0.121 2.051,0.244c-0.004,0.443 -0.018,1.807 -0.018,1.807l0,0.002c0,0.496 -0.95,1.445 -2.438,1.445c-1.362,0 -2.053,-0.554 -2.053,-1.647c0,-0.845 0.427,-1.851 2.458,-1.851m2.052,4.482l0,0.175l1.159,0l0,-0.175c0,-0.27 -0.002,-0.448 -0.005,-0.686c-0.006,-0.474 -0.015,-1.189 -0.015,-3.363c0,-2.739 -0.54,-4.223 -3.393,-4.223c-2.207,0 -3.212,1.14 -3.212,2.198l0,0.175l1.159,0l0,-0.175c0,-0.206 0.365,-1.04 2.053,-1.04c1.449,0 2.168,0.568 2.247,1.781c-0.362,-0.106 -1.105,-0.308 -2.045,-0.308c-2.197,0 -3.617,1.181 -3.617,3.01c0,1.809 1.141,2.806 3.212,2.806c1.269,0 2.061,-0.557 2.455,-0.941c0.002,0.203 0.002,0.458 0.002,0.766" style="fill:#231f20;fill-rule:nonzero;"/><path d="M128.958,36.489c-0.612,0 -1.189,0.225 -1.581,0.618c-0.393,0.394 -0.619,0.97 -0.619,1.582l0,0.174l1.16,0l0,-0.174c0,-0.633 0.408,-1.041 1.04,-1.041c0.382,0 0.684,0.135 0.893,0.396c0.229,0.305 0.35,0.738 0.35,1.252c0,1.616 -1.283,2.66 -3.268,2.66c-1.893,0 -3.267,-1.366 -3.267,-3.248c0,-0.876 0.254,-1.554 0.756,-2.019c0.876,-0.839 2.31,-0.863 2.511,-0.863l0.174,0l0,-0.984l-0.019,-0.175l-0.175,0c-0.098,0 -0.549,-0.042 -0.951,-0.243c-0.591,-0.314 -0.879,-0.84 -0.879,-1.607c0,-1.143 1.078,-1.446 1.647,-1.446c0.57,0 1.649,0.303 1.649,1.446l0,0.175l1.158,0l0,-0.175c0,-1.71 -1.412,-2.604 -2.807,-2.604c-1.394,0 -2.806,0.894 -2.806,2.604c0,1.138 0.465,1.829 0.937,2.238c-0.5,0.211 -0.909,0.472 -1.247,0.793c-0.735,0.694 -1.107,1.656 -1.107,2.86c0,1.262 0.452,2.369 1.308,3.203c0.797,0.776 1.905,1.203 3.118,1.203c2.647,0 4.426,-1.534 4.426,-3.818c0,-1.705 -0.942,-2.807 -2.401,-2.807" style="fill:#231f20;fill-rule:nonzero;"/><path d="M138.26,36.859l6.013,-0l0,-1.017l-6.013,-0l0,-4.591l6.398,-0l0,-1.017l-7.577,-0l0,12.901l7.961,-0l0,-1.017l-6.782,-0l0,-5.259Z" style="fill:#231f20;fill-rule:nonzero;"/><path d="M149.571,38.187c-0.977,-0.297 -1.899,-0.577 -1.899,-1.185c-0.001,-0.225 -0.001,-0.534 0.237,-0.773c0.253,-0.253 0.728,-0.382 1.41,-0.382c1.099,-0 1.447,0.238 1.557,0.38c0.081,0.105 0.06,0.196 0.06,0.201l-0.075,0.229l1.265,-0l0,-0.175c0,-1.157 -0.996,-1.794 -2.807,-1.794c-1.128,-0 -2.806,0.624 -2.806,2.341c0,1.284 1.448,1.748 2.725,2.158c1.098,0.352 2.135,0.685 2.135,1.425c0,1.349 -2.033,1.365 -2.054,1.365c-1.814,-0 -2.006,-1.024 -2.014,-1.066l-0.022,-0.149l-1.175,-0l0,0.175c0,1.51 1.665,2.199 3.211,2.199c1.921,-0 3.212,-1.014 3.212,-2.524c0,-1.525 -1.572,-2.003 -2.96,-2.425" style="fill:#231f20;fill-rule:nonzero;"/><path d="M159.367,40.856c-0.006,0.011 -0.596,1.12 -2.074,1.12c-0.806,0.008 -1.429,-0.205 -1.864,-0.635c-0.514,-0.508 -0.774,-1.325 -0.774,-2.43c0,-2.092 1.327,-3.046 2.64,-3.065c1.462,0 2.043,1.26 2.067,1.314l0.047,0.104l1.153,0l-0.063,-0.222c-0.006,-0.024 -0.692,-2.354 -3.204,-2.354c-1.888,0 -3.799,1.451 -3.799,4.223c0,2.645 1.42,4.224 3.799,4.224c2.318,0 3.19,-2.113 3.199,-2.134l0.095,-0.239l-1.174,0l-0.048,0.094Z" style="fill:#231f20;fill-rule:nonzero;"/><path d="M165.087,34.688c-0.997,-0 -1.789,0.462 -2.255,1.007l0,-0.906l-1.159,-0l0,8.346l1.159,-0l0,-5.357c0,-0.605 0.567,-1.931 2.255,-1.931c0.483,-0 0.844,0.126 1.136,0.398l0.13,0.121l0.782,-0.869l-0.129,-0.116c-0.516,-0.466 -1.143,-0.693 -1.919,-0.693" style="fill:#231f20;fill-rule:nonzero;"/><rect x="168.353" y="34.688" width="1.159" height="8.407" style="fill:#231f20;"/><path d="M168.953,31.732c-0.371,-0 -0.721,0.35 -0.721,0.721c-0,0.357 0.364,0.721 0.721,0.721c0.371,-0 0.721,-0.35 0.721,-0.721c-0,-0.377 -0.343,-0.721 -0.721,-0.721" style="fill:#231f20;fill-rule:nonzero;"/><path d="M173.216,32.663l-1.159,-0l0,2.025l-1.215,-0l0,1.159l1.215,-0l0,5.899c0,0.701 0.688,1.389 1.389,1.389c0.359,-0 0.74,-0.03 1.103,-0.247l0.084,-0.051l0,-1.163l-0.267,0.167c-0.144,0.09 -0.344,0.136 -0.596,0.136c-0.238,-0 -0.554,-0.077 -0.554,-0.737l0,-5.393l1.417,-0l0,-1.159l-1.417,-0l0,-2.025Z" style="fill:#231f20;fill-rule:nonzero;"/><path d="M179.292,31.509l-1.564,2.011l0.407,0.408l2.226,-1.336l0,-0.099c0,-0.251 -0.685,-0.984 -0.984,-0.984l-0.085,-0Z" style="fill:#231f20;fill-rule:nonzero;"/><path d="M179.135,42.058c-1.566,-0 -2.782,-1.691 -2.782,-3.146c-0,-1.446 1.216,-3.126 2.782,-3.126c1.581,-0 2.761,1.65 2.761,3.126c-0,1.455 -1.206,3.146 -2.761,3.146m-0,-7.37c-2.405,-0 -4.022,2.184 -4.022,4.224c-0,2.039 1.617,4.224 4.022,4.224c2.405,-0 4.021,-2.185 4.021,-4.224c-0,-2.04 -1.616,-4.224 -4.021,-4.224" style="fill:#231f20;fill-rule:nonzero;"/><path d="M187.737,34.688c-0.997,-0 -1.789,0.462 -2.255,1.007l0,-0.906l-1.159,-0l0,8.346l1.159,-0l0,-5.357c0,-0.605 0.567,-1.931 2.255,-1.931c0.483,-0 0.844,0.126 1.136,0.398l0.13,0.121l0.782,-0.869l-0.129,-0.116c-0.516,-0.466 -1.143,-0.693 -1.919,-0.693" style="fill:#231f20;fill-rule:nonzero;"/><path d="M191.603,31.732c-0.371,-0 -0.721,0.35 -0.721,0.721c-0,0.357 0.364,0.721 0.721,0.721c0.371,-0 0.721,-0.35 0.721,-0.721c-0,-0.377 -0.343,-0.721 -0.721,-0.721" style="fill:#231f20;fill-rule:nonzero;"/><rect x="191.003" y="34.688" width="1.159" height="8.407" style="fill:#231f20;"/><path d="M197.514,42.058c-1.566,-0 -2.782,-1.691 -2.782,-3.146c-0,-1.446 1.216,-3.126 2.782,-3.126c1.581,-0 2.761,1.65 2.761,3.126c-0,1.455 -1.206,3.146 -2.761,3.146m-0,-7.37c-2.405,-0 -4.022,2.184 -4.022,4.224c-0,2.039 1.617,4.224 4.022,4.224c2.405,-0 4.021,-2.185 4.021,-4.224c-0,-2.04 -1.616,-4.224 -4.021,-4.224" style="fill:#231f20;fill-rule:nonzero;"/></g><defs><linearGradient id="_Linear1" x1="0" y1="0" x2="1" y2="0" gradientUnits="userSpaceOnUse" gradientTransform="matrix(24.8167,0,0,24.8167,12.6731,26.905)"><stop offset="0" style="stop-color:#af1c1b;stop-opacity:1"/><stop offset="0.21" style="stop-color:#af1c1b;stop-opacity:1"/><stop offset="1" style="stop-color:#ec312a;stop-opacity:1"/></linearGradient><linearGradient id="_Linear2" x1="0" y1="0" x2="1" y2="0" gradientUnits="userSpaceOnUse" gradientTransform="matrix(0,-20.7822,20.7822,-0,11.8637,45.8242)"><stop offset="0" style="stop-color:#634183;stop-opacity:1"/><stop offset="0.21" style="stop-color:#634183;stop-opacity:1"/><stop offset="1" style="stop-color:#607bbc;stop-opacity:1"/></linearGradient><linearGradient id="_Linear3" x1="0" y1="0" x2="1" y2="0" gradientUnits="userSpaceOnUse" gradientTransform="matrix(-9.81007,0,-0,-9.81007,40.5247,38.9064)"><stop offset="0" style="stop-color:#f36f23;stop-opacity:1"/><stop offset="0.24" style="stop-color:#f36f23;stop-opacity:1"/><stop offset="1" style="stop-color:#f89920;stop-opacity:1"/></linearGradient></defs></svg>