<?xml version="1.0" encoding="UTF-8" standalone="no"?><!DOCTYPE svg PUBLIC "-//W3C//DTD SVG 1.1//EN" "http://www.w3.org/Graphics/SVG/1.1/DTD/svg11.dtd"><svg width="100%" height="100%" viewBox="0 0 108 94" version="1.1" xmlns="http://www.w3.org/2000/svg" xmlns:xlink="http://www.w3.org/1999/xlink" xml:space="preserve" xmlns:serif="http://www.serif.com/" style="fill-rule:evenodd;clip-rule:evenodd;stroke-linejoin:round;stroke-miterlimit:2;"><g><path d="M24,52.556l-15.128,-0l0,6.885l8.932,-0l0,12.606l3.848,-0l0,-5.568l6.71,-0l0,-9.378c0.004,-0.085 0.174,-2.151 -0.964,-3.288c-1.202,-1.203 -3.062,-1.258 -3.358,-1.258c-0.024,-0 -0.038,-0 -0.04,0.001Z" style="fill:url(#_Linear1);fill-rule:nonzero;"/><path d="M0.862,61.873c-0.93,0.928 -0.79,2.634 -0.788,2.652l0.002,12.643l16.331,-0l0,-16.331l-12.734,-0c-0.182,-0 -1.8,0.024 -2.811,1.036Z" style="fill:url(#_Linear2);fill-rule:nonzero;"/><path d="M30.751,67.875l-7.702,-0l0,7.713l6.187,-0c0.03,0.001 0.772,0.006 1.211,-0.433c0.31,-0.312 0.321,-0.939 0.307,-1.09l-0.003,-6.19Z" style="fill:url(#_Linear3);fill-rule:nonzero;"/></g><path id="G3" d="M94.178,29.203l-0.37,-0l13.166,-19.604l-26.291,-0l0,6.584l13.939,0.074l-12.354,18.42l5.694,-0c4.884,-0 10.655,1.702 10.655,8.211c0,5.326 -4.365,8.211 -9.84,8.211c-4.499,-0 -10.625,-2.062 -13.522,-3.542l-0.087,-0.043l0,-15.203l-0.024,-0l0,-0.004l-21.806,-0l0,4.486c0,2.203 1.189,4.486 4.955,4.486l7.825,-0l0,8.517c0,-0 -3.794,2.155 -9.656,2.155c-7.5,-0 -16.84,-4.603 -17.775,-17.672c-0.202,-2.85 -0.262,-6.021 0,-8.275c1.34,-11.474 9.758,-17.931 20.36,-17.931c6.209,-0 10.775,1.896 14.397,3.621l0.431,-8.276c-3.621,-1.551 -7.5,-3.362 -15.431,-3.362c-20.344,-0 -29.411,13.793 -29.411,30.085c0,16.638 7.86,29.827 26.739,29.827c11.835,-0 19.199,-4.952 19.379,-5.074l0.232,0.086c2.29,0.986 8.64,2.925 14.207,2.925c9.543,-0 17.312,-5.696 17.312,-15.535c0,-10.874 -9.987,-13.167 -12.724,-13.167" style="fill:#231f20;fill-rule:nonzero;"/><g><path d="M42.905,65.97l2.074,0c0.957,0 1.676,0.272 2.133,0.806c0.484,0.6 0.509,1.313 0.509,1.451c-0,0.192 -0.038,0.865 -0.525,1.446c-0.455,0.53 -1.193,0.81 -2.137,0.81l-2.054,0l-0,-4.513Zm-0,5.673l2.054,0c3.022,0 3.821,-2.235 3.821,-3.416c-0,-1.269 -0.8,-3.416 -3.801,-3.416l-3.233,0l-0,12.909l1.159,0l-0,-6.077Z" style="fill:#231f20;fill-rule:nonzero;"/><path d="M53.263,73.061c0.654,-0 1.541,0.121 2.053,0.244c-0.004,0.443 -0.019,1.808 -0.019,1.808l0,0.002c0,0.497 -0.95,1.446 -2.439,1.446c-1.363,-0 -2.054,-0.554 -2.054,-1.648c0,-0.845 0.426,-1.852 2.459,-1.852m2.051,3.719c0.003,0.203 0.003,0.457 0.003,0.766l0,0.175l1.159,-0l0,-0.175c0,-0.27 -0.002,-0.448 -0.005,-0.686c-0.006,-0.476 -0.015,-1.19 -0.015,-3.366c0,-2.741 -0.541,-4.226 -3.396,-4.226c-2.207,-0 -3.213,1.141 -3.213,2.2l0,0.175l1.159,-0l0,-0.175c0,-0.206 0.366,-1.04 2.054,-1.04c1.451,-0 2.171,0.567 2.25,1.781c-0.363,-0.105 -1.106,-0.307 -2.047,-0.307c-2.198,-0 -3.619,1.181 -3.619,3.011c0,1.811 1.141,2.808 3.214,2.808c1.27,-0 2.062,-0.557 2.456,-0.941" style="fill:#231f20;fill-rule:nonzero;"/><path d="M59.793,71.403c0.531,-0.59 1.197,-0.915 1.876,-0.915c0.737,-0 1.562,0.366 2.055,0.911c0.495,0.617 0.768,1.361 0.768,2.095c-0,0.736 -0.274,1.482 -0.767,2.094c-0.475,0.546 -1.302,0.913 -2.056,0.913c-0.696,-0 -1.362,-0.324 -1.869,-0.907c-0.389,-0.49 -0.642,-1.051 -0.732,-1.593l-0.002,-0.985c0.092,-0.57 0.345,-1.131 0.727,-1.613m1.876,-2.135c-1.189,-0 -2.167,0.798 -2.662,1.463l-0,-1.463l-1.16,-0l-0,14.531l1.16,-0l-0,-7.482c0.465,0.654 1.382,1.404 2.662,1.404c2.095,-0 4.003,-2.015 4.003,-4.227c-0,-2.212 -1.908,-4.226 -4.003,-4.226" style="fill:#231f20;fill-rule:nonzero;"/><path d="M67.81,72.428c0.104,-0.999 0.749,-2.082 2.284,-2.082c1.7,-0 2.365,1.085 2.433,2.082l-4.717,-0Zm2.669,5.293c2.32,-0 3.193,-2.114 3.201,-2.136l0.096,-0.239l-1.16,-0l-0.051,0.074c-0.009,0.012 -0.814,1.141 -2.086,1.141c-2.242,-0 -2.665,-1.863 -2.7,-3.095l5.914,-0l-0,-0.175c-0,-2.764 -1.792,-4.023 -3.457,-4.023c-0.712,-0 -1.727,0.167 -2.513,0.964c-0.726,0.736 -1.084,1.834 -1.065,3.265c0.041,2.684 1.434,4.224 3.821,4.224" style="fill:#231f20;fill-rule:nonzero;"/><rect x="74.861" y="63.19" width="1.159" height="14.53" style="fill:#231f20;"/><path d="M81.01,73.061c0.654,-0 1.541,0.121 2.053,0.244c-0.004,0.443 -0.019,1.808 -0.019,1.808l0,0.002c0,0.497 -0.95,1.446 -2.439,1.446c-1.363,-0 -2.054,-0.554 -2.054,-1.648c0,-0.845 0.426,-1.852 2.459,-1.852m-3.619,1.852c0,1.811 1.141,2.808 3.214,2.808c1.27,-0 2.062,-0.557 2.456,-0.941c0.003,0.203 0.003,0.457 0.003,0.766l0,0.175l1.159,-0l0,-0.175c0,-0.27 -0.002,-0.448 -0.005,-0.686c-0.006,-0.476 -0.015,-1.19 -0.015,-3.366c0,-2.741 -0.541,-4.226 -3.396,-4.226c-2.207,-0 -3.213,1.141 -3.213,2.2l0,0.175l1.159,-0l0,-0.175c0,-0.206 0.366,-1.04 2.054,-1.04c1.451,-0 2.171,0.567 2.25,1.781c-0.363,-0.105 -1.106,-0.307 -2.047,-0.307c-2.198,-0 -3.619,1.181 -3.619,3.011" style="fill:#231f20;fill-rule:nonzero;"/><path d="M90.277,70.947l0.782,-0.869l-0.129,-0.117c-0.515,-0.466 -1.143,-0.693 -1.92,-0.693c-0.96,0 -1.776,0.456 -2.256,1.011l0,-0.91l-1.16,0l0,8.351l1.16,0l0,-5.36c0,-0.606 0.568,-1.933 2.256,-1.933c0.483,0 0.844,0.127 1.137,0.399l0.13,0.121Z" style="fill:#231f20;fill-rule:nonzero;"/><path d="M92.878,67.753c0.371,0 0.722,-0.351 0.722,-0.722c0,-0.377 -0.344,-0.721 -0.722,-0.721c-0.371,0 -0.722,0.35 -0.722,0.721c0,0.358 0.365,0.722 0.722,0.722" style="fill:#231f20;fill-rule:nonzero;"/><rect x="92.278" y="69.268" width="1.159" height="8.412" style="fill:#231f20;"/><path d="M98.267,73.061c0.654,-0 1.541,0.121 2.053,0.244c-0.004,0.443 -0.019,1.808 -0.019,1.808l-0,0.002c-0,0.497 -0.95,1.446 -2.439,1.446c-1.363,-0 -2.054,-0.554 -2.054,-1.648c-0,-0.845 0.426,-1.852 2.459,-1.852m2.054,4.485l-0,0.175l1.159,-0l-0,-0.175c-0,-0.27 -0.002,-0.448 -0.005,-0.686c-0.006,-0.476 -0.015,-1.19 -0.015,-3.366c-0,-2.741 -0.541,-4.226 -3.396,-4.226c-2.207,-0 -3.213,1.141 -3.213,2.2l-0,0.175l1.159,-0l-0,-0.175c-0,-0.206 0.366,-1.04 2.054,-1.04c1.451,-0 2.171,0.567 2.25,1.781c-0.363,-0.105 -1.106,-0.307 -2.047,-0.307c-2.198,-0 -3.619,1.181 -3.619,3.011c-0,1.811 1.141,2.808 3.214,2.808c1.27,-0 2.062,-0.557 2.456,-0.941c0.003,0.203 0.003,0.457 0.003,0.766" style="fill:#231f20;fill-rule:nonzero;"/><path d="M33.617,87.134c-0.612,0 -1.189,0.225 -1.582,0.619c-0.393,0.393 -0.619,0.97 -0.619,1.582l-0,0.175l1.16,0l-0,-0.175c-0,-0.633 0.409,-1.042 1.041,-1.042c0.383,0 0.684,0.136 0.893,0.397c0.23,0.305 0.351,0.738 0.351,1.253c-0,1.616 -1.284,2.661 -3.27,2.661c-1.894,0 -3.269,-1.366 -3.269,-3.249c-0,-0.877 0.253,-1.556 0.756,-2.021c0.877,-0.839 2.312,-0.864 2.513,-0.864l0.175,0l-0,-0.985l-0.021,-0.174l-0.174,0c-0.099,0 -0.549,-0.042 -0.952,-0.243c-0.591,-0.314 -0.879,-0.841 -0.879,-1.608c-0,-1.144 1.078,-1.447 1.648,-1.447c0.571,0 1.649,0.303 1.649,1.447l-0,0.174l1.16,0l-0,-0.174c-0,-1.711 -1.413,-2.606 -2.809,-2.606c-1.395,0 -2.808,0.895 -2.808,2.606c-0,1.138 0.465,1.83 0.938,2.239c-0.501,0.211 -0.911,0.473 -1.248,0.794c-0.735,0.694 -1.108,1.657 -1.108,2.862c-0,1.262 0.453,2.37 1.309,3.204c0.798,0.777 1.906,1.205 3.12,1.205c2.649,0 4.429,-1.536 4.429,-3.821c-0,-1.706 -0.943,-2.809 -2.403,-2.809" style="fill:#231f20;fill-rule:nonzero;"/><path d="M42.925,87.504l6.017,-0l-0,-1.018l-6.017,-0l-0,-4.594l6.402,-0l-0,-1.018l-7.582,-0l-0,12.91l7.967,-0l-0,-1.017l-6.787,-0l-0,-5.263Z" style="fill:#231f20;fill-rule:nonzero;"/><path d="M54.242,88.832c-0.977,-0.297 -1.9,-0.578 -1.9,-1.186c0,-0.225 -0.001,-0.534 0.237,-0.773c0.254,-0.254 0.729,-0.382 1.412,-0.382c1.099,0 1.447,0.238 1.557,0.379c0.082,0.106 0.061,0.197 0.06,0.202l-0.075,0.229l1.266,0l0,-0.175c0,-1.158 -0.997,-1.795 -2.808,-1.795c-1.129,0 -2.808,0.624 -2.808,2.342c0,1.285 1.448,1.75 2.726,2.16c1.099,0.352 2.136,0.685 2.136,1.426c0,1.35 -2.034,1.365 -2.054,1.365c-1.816,0 -2.008,-1.024 -2.015,-1.067l-0.023,-0.148l-1.175,0l0,0.174c0,1.512 1.665,2.201 3.213,2.201c1.922,0 3.213,-1.015 3.213,-2.525c0,-1.527 -1.573,-2.005 -2.962,-2.427" style="fill:#231f20;fill-rule:nonzero;"/><path d="M64.045,91.503c-0.024,0.046 -0.605,1.121 -2.075,1.121c-0.016,0.001 -0.032,0.001 -0.047,0.001c-0.78,0 -1.393,-0.214 -1.819,-0.636c-0.514,-0.508 -0.774,-1.327 -0.774,-2.432c0,-2.093 1.328,-3.048 2.641,-3.066c1.464,0 2.045,1.26 2.069,1.314l0.047,0.104l1.154,0l-0.063,-0.222c-0.007,-0.024 -0.693,-2.356 -3.207,-2.356c-1.889,0 -3.801,1.452 -3.801,4.226c0,2.647 1.421,4.227 3.801,4.227c2.32,0 3.193,-2.114 3.201,-2.136l0.096,-0.239l-1.174,0l-0.049,0.094Z" style="fill:#231f20;fill-rule:nonzero;"/><path d="M69.769,85.331c-0.997,0 -1.79,0.462 -2.257,1.007l-0,-0.906l-1.159,0l-0,8.352l1.159,0l-0,-5.361c-0,-0.606 0.569,-1.933 2.257,-1.933c0.483,0 0.844,0.127 1.137,0.399l0.13,0.121l0.782,-0.869l-0.129,-0.117c-0.515,-0.466 -1.143,-0.693 -1.92,-0.693" style="fill:#231f20;fill-rule:nonzero;"/><rect x="73.037" y="85.332" width="1.159" height="8.412" style="fill:#231f20;"/><path d="M73.637,82.373c-0.371,0 -0.722,0.351 -0.722,0.722c-0,0.357 0.365,0.721 0.722,0.721c0.371,0 0.722,-0.35 0.722,-0.721c-0,-0.378 -0.344,-0.722 -0.722,-0.722" style="fill:#231f20;fill-rule:nonzero;"/><path d="M77.903,83.305l-1.16,0l-0,2.026l-1.215,0l-0,1.16l1.215,0l-0,5.903c-0,0.701 0.689,1.39 1.391,1.39c0.358,0 0.74,-0.03 1.102,-0.248l0.085,-0.051l-0,-1.164l-0.267,0.168c-0.144,0.09 -0.344,0.136 -0.596,0.136c-0.239,0 -0.555,-0.077 -0.555,-0.738l-0,-5.396l1.418,0l-0,-1.16l-1.418,0l-0,-2.026Z" style="fill:#231f20;fill-rule:nonzero;"/><path d="M83.825,92.706c-1.567,-0 -2.783,-1.693 -2.783,-3.148c0,-1.447 1.216,-3.128 2.783,-3.128c1.581,-0 2.763,1.651 2.763,3.128c0,1.455 -1.207,3.148 -2.763,3.148m0,-7.374c-2.407,-0 -4.024,2.185 -4.024,4.226c0,2.041 1.617,4.226 4.024,4.226c2.407,-0 4.024,-2.185 4.024,-4.226c0,-2.041 -1.617,-4.226 -4.024,-4.226" style="fill:#231f20;fill-rule:nonzero;"/><path d="M83.983,82.15l-1.565,2.013l0.408,0.408l2.227,-1.337l0,-0.099c0,-0.252 -0.685,-0.985 -0.985,-0.985l-0.085,0Z" style="fill:#231f20;fill-rule:nonzero;"/><path d="M92.433,85.331c-0.997,0 -1.79,0.462 -2.257,1.007l0,-0.906l-1.159,0l0,8.352l1.159,0l0,-5.361c0,-0.606 0.569,-1.933 2.257,-1.933c0.483,0 0.844,0.127 1.137,0.399l0.13,0.121l0.782,-0.869l-0.129,-0.117c-0.515,-0.466 -1.143,-0.693 -1.92,-0.693" style="fill:#231f20;fill-rule:nonzero;"/><path d="M96.301,82.373c-0.371,0 -0.722,0.351 -0.722,0.722c0,0.357 0.365,0.721 0.722,0.721c0.371,0 0.722,-0.35 0.722,-0.721c0,-0.378 -0.344,-0.722 -0.722,-0.722" style="fill:#231f20;fill-rule:nonzero;"/><rect x="95.701" y="85.332" width="1.159" height="8.412" style="fill:#231f20;"/><path d="M102.216,92.706c-1.567,-0 -2.783,-1.693 -2.783,-3.148c-0,-1.447 1.216,-3.128 2.783,-3.128c1.581,-0 2.763,1.651 2.763,3.128c-0,1.455 -1.207,3.148 -2.763,3.148m-0,-7.374c-2.407,-0 -4.024,2.185 -4.024,4.226c-0,2.041 1.617,4.226 4.024,4.226c2.407,-0 4.024,-2.185 4.024,-4.226c-0,-2.041 -1.617,-4.226 -4.024,-4.226" style="fill:#231f20;fill-rule:nonzero;"/></g><defs><linearGradient id="_Linear1" x1="0" y1="0" x2="1" y2="0" gradientUnits="userSpaceOnUse" gradientTransform="matrix(19.5006,0,0,19.5006,8.87246,62.301)"><stop offset="0" style="stop-color:#af1c1b;stop-opacity:1"/><stop offset="0.21" style="stop-color:#af1c1b;stop-opacity:1"/><stop offset="1" style="stop-color:#ec312a;stop-opacity:1"/></linearGradient><linearGradient id="_Linear2" x1="0" y1="0" x2="1" y2="0" gradientUnits="userSpaceOnUse" gradientTransform="matrix(0,-16.3303,16.3303,-0,8.23644,77.1674)"><stop offset="0" style="stop-color:#634183;stop-opacity:1"/><stop offset="0.21" style="stop-color:#634183;stop-opacity:1"/><stop offset="1" style="stop-color:#607bbc;stop-opacity:1"/></linearGradient><linearGradient id="_Linear3" x1="0" y1="0" x2="1" y2="0" gradientUnits="userSpaceOnUse" gradientTransform="matrix(-7.70862,0,-0,-7.70862,30.7578,71.7315)"><stop offset="0" style="stop-color:#f36f23;stop-opacity:1"/><stop offset="0.24" style="stop-color:#f36f23;stop-opacity:1"/><stop offset="1" style="stop-color:#f89920;stop-opacity:1"/></linearGradient></defs></svg>